<?xml version="1.0" encoding="UTF-8" standalone="no"?>
<!-- Created with Inkscape (http://www.inkscape.org/) -->

<svg
   version="1.1"
   id="svg1"
   width="1440"
   height="1440"
   viewBox="0 0 1440 1440"
   sodipodi:docname="threecolor.svg"
   xml:space="preserve"
   inkscape:export-filename="../../../mnt/Home/Projects/rusty-sheet/rusty-sheet/src/assets/RustySheetLogo.svg"
   inkscape:export-xdpi="96"
   inkscape:export-ydpi="96"
   inkscape:version="1.3.2 (091e20ef0f, 2023-11-25, custom)"
   xmlns:inkscape="http://www.inkscape.org/namespaces/inkscape"
   xmlns:sodipodi="http://sodipodi.sourceforge.net/DTD/sodipodi-0.dtd"
   xmlns="http://www.w3.org/2000/svg"
   xmlns:svg="http://www.w3.org/2000/svg"><defs
     id="defs1" /><sodipodi:namedview
     id="namedview1"
     pagecolor="#505050"
     bordercolor="#eeeeee"
     borderopacity="1"
     inkscape:showpageshadow="0"
     inkscape:pageopacity="0"
     inkscape:pagecheckerboard="0"
     inkscape:deskcolor="#d1d1d1"
     inkscape:zoom="0.72674864"
     inkscape:cx="619.19621"
     inkscape:cy="613.69224"
     inkscape:window-width="1680"
     inkscape:window-height="986"
     inkscape:window-x="0"
     inkscape:window-y="36"
     inkscape:window-maximized="1"
     inkscape:current-layer="svg1" /><rect
     style="fill:#E0E0E0"
     x="-19.070305"
     y="-10.508096" /><path
     d="m 712.23573,1049.8458 c -1.88809,-2.0167 -29.09943,-36.6667 -60.46966,-77.00005 -31.37022,-40.33334 -66.53736,-85.44343 -78.14919,-100.24466 -11.61182,-14.80123 -21.69017,-28.43094 -22.39631,-30.28824 -0.97343,-2.56031 -0.78563,-3.87519 0.7766,-5.43742 1.84006,-1.84006 19.72969,-2.02319 167.21669,-1.71176 121.01668,0.25554 165.56063,0.75323 166.66949,1.86221 1.12884,1.12897 1.00659,2.4933 -0.4812,5.37038 -2.34289,4.53066 -152.13939,198.76624 -158.95892,206.11614 -5.56894,6.0021 -9.49176,6.3703 -14.2075,1.3334 z m 46.93398,-11.4381 c 0,-1.7076 1.79043,-5.7576 3.97874,-9 8.54231,-12.6571 142.22508,-183.12989 145.52814,-185.57809 2.54644,-1.8874 4.60609,-2.35784 7.52051,-1.71774 2.2074,0.48485 18.3294,9.01059 35.8264,18.9461 17.4971,9.93551 34.6407,19.50117 38.097,21.25703 8.1935,4.16246 15.7159,10.83211 15.7159,13.93435 0,1.35338 -1.95,3.91356 -4.3334,5.6893 -4.9324,3.675 -213.35803,125.10535 -229.66662,133.80555 -5.86667,3.1297 -11.11667,5.7079 -11.66667,5.7293 -0.55,0.021 -1,-1.3582 -1,-3.0658 z m -89.04223,-0.8783 c -8.53642,-3.8744 -232.54276,-134.61779 -235.55861,-137.48594 -2.09467,-1.99209 -2.35417,-3.16823 -1.33334,-6.04324 1.01088,-2.84697 9.09645,-8.12626 39.93418,-26.07407 50.65815,-29.48346 48.65898,-28.68038 55.79638,-22.41366 5.62006,4.93448 142.33695,178.96611 147.00171,187.12351 1.74338,3.0487 3.17702,5.9931 3.18585,6.5431 0.0264,1.6443 -2.97882,1.0951 -9.02617,-1.6497 z M 416.7939,869.17908 c -1.75607,-2.1379 -3.75283,-276.32142 -2.04437,-280.72126 1.1861,-3.0546 1.1861,-3.0546 4.26206,0.21961 1.69178,1.80082 6.35632,11.27539 10.36564,21.0546 23.1134,56.37626 80.25651,199.7605 81.03536,203.33499 0.76124,3.49366 0.27374,4.92688 -2.82822,8.31483 -5.04627,5.51153 -81.37825,49.45203 -85.91807,49.45873 -1.92687,0.003 -4.11945,-0.74483 -4.8724,-1.6615 z m 565.0425,-16.09576 c -17.2334,-9.75354 -35.2644,-19.90989 -40.0689,-22.56967 -12.5522,-6.94886 -16.3617,-11.1089 -15.5518,-16.98302 0.6755,-4.89892 63.131,-159.04951 82.6336,-203.95327 6.1952,-14.26428 11.9173,-26.15281 12.7158,-26.41895 0.7984,-0.26615 1.8826,1.80463 2.4093,4.60172 1.6324,8.66944 -0.5829,279.21176 -2.3033,281.28474 -3.1603,3.80797 -9.1326,1.41493 -39.8347,-15.96155 z M 551.83518,811.32074 c -1.49032,-1.49033 -1.91462,-3.3037 -1.32589,-5.66667 0.47618,-1.91124 30.29649,-54.41839 66.26735,-116.68254 35.97086,-62.26415 71.66187,-124.16669 79.31335,-137.5612 13.23413,-23.16738 18.78616,-31.23125 21.50291,-31.23125 2.33344,0 8.31229,5.59922 10.44777,9.78439 1.18305,2.31859 37.17106,64.88179 79.97336,139.02934 44.76983,77.55597 77.82235,136.19531 77.82235,138.06667 0,1.78911 -0.72,3.97293 -1.6,4.85293 -1.22713,1.22714 -39.88995,1.6 -165.90476,1.6 -150.65731,0 -164.48681,-0.18204 -166.49644,-2.19167 z M 522.854,793.17908 c -1.70659,-2.61782 -19.02207,-44.92122 -83.09123,-203 -8.32214,-20.53333 -15.51208,-38.93134 -15.97765,-40.88446 -1.07304,-4.5015 2.56858,-8.42871 8.8686,-9.56411 11.31901,-2.03992 251.41712,-34.2181 255.31905,-34.2181 5.51653,0 7.42721,2.94152 5.50059,8.46824 -0.76763,2.20201 -24.30383,43.64748 -52.30266,92.10104 -27.99884,48.45357 -63.35527,109.69739 -78.56984,136.09739 -15.21456,26.4 -28.9153,49.35 -30.44608,51 -1.53078,1.65 -3.80965,3 -5.06414,3 -1.2545,0 -3.16099,-1.35 -4.23664,-3 z m 380.56289,-0.66667 c -3.25573,-4.58954 -15.06166,-24.8974 -93.53027,-160.88531 -34.66212,-60.07026 -64.15114,-111.07026 -65.53116,-113.33334 -3.76033,-6.16654 -3.343,-11.19042 1.02056,-12.2856 3.31914,-0.83305 41.6138,4.03172 200.98868,25.53267 71.3657,9.62781 69.3478,9.02497 66.452,19.85198 -0.8696,3.25137 -7.8476,21.10839 -15.5066,39.68226 -7.6591,18.57387 -29.3179,71.27068 -48.1307,117.10401 -18.8129,45.83333 -35.15422,84.38333 -36.31411,85.66667 -3.03681,3.36002 -6.46188,2.87668 -9.4484,-1.33334 z M 456.42802,514.98593 c 2.20304,-4.11641 2.40535,-4.23685 128.07502,-76.24605 89.73115,-51.41629 113.61666,-64.55867 117.33334,-64.55962 4.66666,-10e-4 4.66666,-10e-4 5.03794,50.66549 0.2042,27.86666 0.0447,52.00907 -0.3545,53.6498 -0.39918,1.64072 -2.07433,3.86673 -3.72256,4.94669 -1.89364,1.24077 -24.58568,4.94645 -61.64549,10.06691 -32.2568,4.45683 -81.90665,11.38792 -110.33301,15.40242 -28.42636,4.0145 -57.14829,7.68694 -63.82651,8.16097 -12.14221,0.86188 -12.14221,0.86188 -10.56423,-2.08661 z M 962.503,516.5702 c -2.9333,-0.27167 -19.7333,-2.55274 -37.3333,-5.06905 -17.59999,-2.5163 -67.02487,-9.41213 -109.83306,-15.32406 -42.80819,-5.91193 -78.94444,-11.34375 -80.30277,-12.07071 -1.35834,-0.72696 -3.08346,-2.46855 -3.8336,-3.8702 -0.85636,-1.60013 -1.36389,-20.21058 -1.36389,-50.01227 0,-52.1944 0.56642,-56.7115 7.11138,-56.7115 1.8022,0 28.38685,14.41902 59.73471,32.399 186.98233,107.24614 180.97793,103.68027 183.98993,109.26767 1.1306,2.09745 0.5454,2.31067 -5.7891,2.1092 -3.8758,-0.12328 -9.4469,-0.44642 -12.3803,-0.71808 z"
     style="fill:#F03A47"
     id="path1-5" /><path
     style="fill:#0A0A0A"
     d="m 647.29303,1401.4167 c -3.82464,-3.1047 -7.77679,-7.7959 -9.11207,-10.8161 -3.12471,-7.0674 -28.66348,-72.1268 -30.4877,-77.6666 -0.78481,-2.3834 -1.83011,-4.3334 -2.32288,-4.3334 -0.49278,0 -15.17063,15.0066 -32.61745,33.348 -31.72149,33.348 -31.72149,33.348 -40.90942,36.1387 -9.18794,2.7907 -9.18794,2.7907 -14.45323,-3.0146 -2.89591,-3.193 -5.89367,-7.9054 -6.6617,-10.4721 -0.76802,-2.5666 -4.74707,-23.5666 -8.84233,-46.6666 -4.09526,-23.1 -7.67221,-42.2378 -7.94878,-42.5285 -0.67621,-0.7106 -7.22516,3.6451 -37.89039,25.2008 -39.46266,27.7398 -39.44301,27.7286 -49.358,28.1332 -8.47646,0.346 -8.47646,0.346 -12.93512,-7.5631 -4.45866,-7.9091 -4.45866,-7.9091 -3.55484,-54.9418 1.02871,-53.5314 6.9387,-49.9726 -44.81871,-26.9884 -38.04298,16.8939 -40.05741,17.5594 -50.05236,16.5354 -8.51609,-0.8725 -8.51609,-0.8725 -11.37677,-9.4688 -1.79847,-5.4044 -2.57078,-10.165 -2.07992,-12.8209 0.42943,-2.3235 4.8065,-22.6627 9.72682,-45.1982 4.92033,-22.5355 8.55101,-41.3687 8.06817,-41.8516 -0.48284,-0.4828 -18.97443,3.143 -41.09242,8.0575 -48.73031,10.8275 -50.36057,11.0381 -59.86019,7.7348 -7.33333,-2.5499 -7.33333,-2.5499 -8.31872,-11.0919 -1.16931,-10.1363 -1.89392,-8.0564 20.55109,-58.9881 8.6722,-19.6787 15.76763,-36.0783 15.76763,-36.4434 0,-0.3651 -21.15956,-0.2299 -47.02124,0.3005 -47.02124,0.9642 -47.02124,0.9642 -54.80551,-3.429 -7.78426,-4.3931 -7.78426,-4.3931 -7.2408,-13.1875 0.62335,-10.087 0.94254,-10.6526 26.40888,-46.79436 23.49327,-33.34154 27.03325,-38.83083 25.79611,-40.00087 -0.62559,-0.59167 -17.03744,-3.83801 -36.47077,-7.21409 -53.841543,-9.35369 -54.288542,-9.46932 -61.598651,-15.93484 -6.265318,-5.54145 -6.265318,-5.54145 -4.153035,-13.92683 2.112283,-8.38539 2.112283,-8.38539 35.938426,-41.24793 18.60438,-18.07441 33.37325,-33.27802 32.8197,-33.78582 -0.55354,-0.5078 -16.00644,-6.70676 -34.33977,-13.77546 -50.913121,-19.63035 -51.27247,-19.80432 -57.575051,-27.87411 -5.439585,-6.9648 -5.439585,-6.9648 -1.632541,-14.49369 4.461639,-8.82343 5.405064,-9.53709 50.483229,-38.18835 17.201603,-10.93318 31.452513,-20.40914 31.668693,-21.05768 0.21619,-0.64855 -10.85785,-8.34616 -24.60897,-17.1058 -53.851299,-34.30396 -52.853426,-33.56232 -57.298438,-42.58536 -3.990397,-8.1002 -3.990397,-8.1002 1.486339,-15.02211 5.966389,-7.54076 2.976854,-6.16729 74.143399,-34.06339 9.16667,-3.59318 17.13657,-7.00083 17.71088,-7.57257 0.57431,-0.57173 -13.9759,-15.29718 -32.3338,-32.72321 -33.378017,-31.68369 -33.378017,-31.68369 -36.182916,-40.91821 -2.804898,-9.23452 -2.804898,-9.23452 3.000471,-14.49981 3.192953,-2.89591 7.90537,-5.89312 10.472036,-6.66046 4.285983,-1.28136 85.359229,-16.01607 88.123549,-16.01607 3.10833,0 1.67705,-2.25059 -30.95002,-48.66667 -19.41742,-27.62371 -20.91739,-30.42975 -21.33432,-39.91063 -0.34787,-7.91064 -0.34787,-7.91064 7.57313,-12.36062 7.92099,-4.44999 7.92099,-4.44999 54.95809,-3.55121 47.0371,0.89878 47.0371,0.89878 42.48573,-9.63938 -2.50325,-5.79599 -10.26385,-23.48133 -17.24578,-39.30076 -15.61853,-35.38797 -16.14025,-37.05573 -14.72045,-47.05689 1.11007,-7.81949 1.11007,-7.81949 9.11007,-10.34481 9.7158,-3.06694 8.21477,-3.26561 57.44501,7.60309 41.09638,9.07297 43.22166,9.41994 43.22166,7.05638 0,-0.82766 -3.93517,-19.18594 -8.74483,-40.79618 -10.62621,-47.7446 -10.8561,-49.54076 -7.55564,-59.03232 2.54999,-7.33334 2.54999,-7.33334 11.0919,-8.32054 9.99718,-1.1554 5.65429,-2.62658 52.79209,17.88371 19.93761,8.67512 37.84284,16.37846 39.7894,17.11854 3.53921,1.34561 3.53921,1.34561 2.62505,-45.66805 -0.91417,-47.01366 -0.91417,-47.01366 3.31074,-54.68033 4.22491,-7.66667 4.22491,-7.66667 11.64539,-7.66667 4.84153,0 9.32481,0.95715 12.89986,2.75403 3.01365,1.51471 21.07937,13.72107 40.14604,27.12524 21.02579,14.78147 35.00416,23.79729 35.52438,22.91264 0.47174,-0.80221 3.33595,-15.85857 6.36491,-33.45857 9.47119,-55.033108 10.14911,-57.671899 16.72207,-65.090127 5.69153,-6.423456 5.69153,-6.423456 13.54008,-4.27479 7.70484,2.109322 8.46257,2.775298 41.38048,36.369797 33.53191,34.22113 33.53191,34.22113 35.78436,28.94146 1.23885,-2.90382 7.2284,-18.17968 13.31013,-33.94634 18.41053,-47.728663 18.58483,-48.085769 26.48046,-54.252337 6.95122,-5.428968 6.95122,-5.428968 14.51316,-1.605208 8.78762,4.443528 8.15087,3.60254 37.18708,49.115052 11.44391,17.937643 21.35331,32.795963 22.02088,33.018483 0.66758,0.22253 8.70438,-11.33595 17.85956,-25.68551 30.37116,-47.602864 33.23566,-51.518393 40.64578,-55.559338 3.66667,-1.999537 7.50487,-3.649537 8.52935,-3.666667 1.02447,-0.01713 4.55816,2.177606 7.85265,4.877192 7.15725,5.864824 9.18139,10.109273 27.70067,58.085883 7.28787,18.88015 13.62434,34.33015 14.08106,34.33333 0.45672,0.003 14.46827,-14.36554 31.13676,-31.93048 16.6685,-17.564943 31.6609,-32.823784 33.31643,-33.908535 1.65554,-1.08475 6.37882,-2.951595 10.49618,-4.148545 7.48612,-2.176271 7.48612,-2.176271 11.85318,2.778975 8.48939,9.632811 7.60237,6.487037 17.07277,60.547705 3.78975,21.63333 7.12412,39.57614 7.40972,39.87291 0.66471,0.6907 14.17808,-8.29233 41.88456,-27.84282 35.67326,-25.1721 36.01906,-25.36343 45.84016,-25.36343 8.455,0 8.455,0 12.7151,7.99274 4.26,7.99273 4.26,7.99273 3.3119,54.70478 -1.0822,53.31026 -7.5567,49.88672 47.9637,25.36193 36.713,-16.21705 36.8674,-16.26708 46.9982,-15.22915 8.4061,0.86123 8.4061,0.86123 11.2126,9.29493 3.3083,9.94149 3.4834,8.69463 -9.1553,65.20811 -5.3984,24.13859 -7.2755,34.7862 -6.181,35.06028 0.8646,0.21648 19.2096,-3.51258 40.7667,-8.28681 50.5202,-11.18869 49.0276,-10.98327 58.6457,-8.07114 8.4948,2.57202 8.35,2.36613 9.845,13.98983 0.8762,6.81209 -1.1837,12.4114 -20.5917,55.9745 -6.0442,13.56667 -12.1383,27.57204 -13.5426,31.12305 -2.5532,6.45639 -2.5532,6.45639 44.5078,5.48519 47.061,-0.97119 47.061,-0.97119 54.6957,3.33756 7.6347,4.30876 7.6347,4.30876 7.6347,11.86789 0,9.78526 -0.9571,11.51544 -27.0251,48.85298 -11.7758,16.86667 -22.5863,32.36289 -24.0233,34.43606 -1.4645,2.11277 -2.1013,4.25455 -1.4489,4.87329 0.6402,0.60714 18.864,4.18206 40.4973,7.94427 46.7189,8.12478 50.9509,9.26997 58.2755,15.76943 5.6088,4.97695 5.6088,4.97695 3.539,13.16559 -2.0146,7.97047 -2.6081,8.71828 -22.2755,28.06752 -11.1131,10.93338 -26.3595,25.81461 -33.8809,33.0694 -7.5214,7.2548 -13.2214,13.64293 -12.6667,14.19585 0.5547,0.55293 17.2086,7.27877 37.0086,14.94633 48.3611,18.72784 48.846,18.9641 55.1066,26.84778 5.2799,6.64885 5.2799,6.64885 1.4432,14.24944 -4.5328,8.97928 -6.5682,10.51889 -51.5498,38.9919 -17.05,10.79253 -31,20.0434 -31,20.55747 0,0.51408 1.3956,1.82366 3.1013,2.91018 1.7057,1.08652 16.2557,10.34495 32.3333,20.5743 40.1832,25.56639 42.4885,27.34861 47.053,36.37537 3.8212,7.55698 3.8212,7.55698 -1.4481,14.22319 -3.0617,3.87328 -7.5954,7.72791 -10.8211,9.20026 -6.4639,2.9504 -71.4847,28.51526 -77.8851,30.62286 -2.3833,0.78481 -4.3333,1.86246 -4.3333,2.39477 0,0.53232 14.0059,14.25704 31.1243,30.49937 17.1184,16.24234 32.3366,31.1712 33.8182,33.17525 1.4817,2.00404 3.7049,7.12127 4.9405,11.37161 2.2466,7.72789 2.2466,7.72789 -3.4849,12.92758 -3.1523,2.85982 -7.8314,5.82751 -10.3981,6.59486 -4.286,1.28136 -85.3592,16.01607 -88.1235,16.01607 -0.6654,0 -1.2098,0.66675 -1.2098,1.48168 0,0.81492 10.3957,16.26492 23.1017,34.33333 30.0298,42.70378 30.2316,43.05948 30.2316,53.28298 0,8.197 0,8.197 -8.1833,12.3279 -8.1833,4.1309 -8.1833,4.1309 -54.6699,3.1613 -53.3481,-1.1128 -49.8927,-7.5309 -25.5264,47.4128 16.7389,37.7447 16.5938,37.3011 15.5468,47.5203 -0.8587,8.3815 -0.8587,8.3815 -9.249,11.1736 -9.9821,3.3218 -8.477,3.5229 -60.7675,-8.1196 -37.9659,-8.4531 -39.8174,-8.7482 -39.8174,-6.3467 0,0.8585 3.9436,19.3085 8.7635,41 10.6386,47.8781 10.8237,49.3211 7.5364,58.7724 -2.5506,7.3333 -2.5506,7.3333 -10.8975,8.3771 -10.0795,1.2605 -9.4796,1.4644 -56.1556,-19.0873 -18.6524,-8.2127 -35.3239,-15.4708 -37.0479,-16.1291 -3.1344,-1.1969 -3.1344,-1.1969 -2.1586,45.8652 0.9758,47.0621 0.9758,47.0621 -3.3262,54.6848 -4.3019,7.6226 -4.3019,7.6226 -12.6703,7.6226 -9.6294,0 -10.4472,-0.4652 -50.71042,-28.8476 -33.44838,-23.5784 -35.47384,-24.8842 -36.65835,-23.6323 -0.59672,0.6306 -3.8472,17.0466 -7.22328,36.4799 -9.38037,53.9952 -9.45134,54.2681 -16.04999,61.7296 -5.65659,6.3961 -5.65659,6.3961 -13.78856,4.1352 -8.76472,-2.4368 -8.95575,-2.6128 -60.54363,-55.7869 -14.1536,-14.5888 -14.1536,-14.5888 -16.39593,-9.3333 -1.23328,2.8905 -7.21828,18.1554 -13.30001,33.9221 -18.57846,48.164 -18.77074,48.5578 -26.5964,54.4662 -6.87842,5.1933 -6.87842,5.1933 -14.41294,1.3834 -8.86507,-4.4827 -10.96711,-7.2453 -36.98807,-48.6121 -21.52031,-34.2119 -22.291,-35.2552 -24.06079,-32.5708 -0.72521,1.1 -8.23635,12.8 -16.69141,26 -33.21573,51.8562 -32.26128,50.5829 -41.22295,54.9942 -8.06769,3.9712 -8.06769,3.9712 -14.82174,-1.5115 z m 87.69441,-129.5551 c 17.92788,-6.1086 28.66279,-27.5174 23.20749,-46.283 -3.10948,-10.6963 -9.28159,-18.0984 -19.54177,-23.4362 -8.03191,-4.1786 -9.28342,-4.4393 -18.75837,-3.9072 -8.16558,0.4586 -11.55756,1.3596 -17.33334,4.6042 -26.72535,15.0132 -25.68517,53.9717 1.80682,67.6716 8.17754,4.075 20.96768,4.6392 30.61917,1.3506 z m -122.12061,-43.5943 c 9.37877,-6.5959 10.57392,-8.039 20.70574,-25 5.91385,-9.9 17.96996,-31.0802 26.79136,-47.0672 15.71571,-28.4814 16.27894,-29.2875 27.94996,-40 11.58007,-10.629 12.17718,-10.9809 21.48878,-12.6657 7.61855,-1.3785 11.89605,-1.4091 20.91107,-0.1497 11.33334,1.5832 11.33334,1.5832 23.5647,12.8035 12.05604,11.0595 12.46018,11.635 28.19436,40.1497 8.77965,15.9112 20.8016,37.0294 26.71546,46.9294 10.11756,16.9372 11.33693,18.411 20.65099,24.9608 9.89853,6.9608 9.89853,6.9608 21.05318,5.1435 13.91226,-2.2666 53.33145,-15.276 77.15465,-25.4631 46.67355,-19.9581 90.82302,-46.9722 129.33332,-79.1362 19.6709,-16.4292 34.3599,-30.4661 41.3141,-39.4801 5.5093,-7.141 5.5093,-7.141 4.6057,-18.9163 -0.9036,-11.7753 -0.9036,-11.7753 -13.6778,-34.4419 -7.0258,-12.4667 -19.2444,-33.3032 -27.1525,-46.30344 -13.9445,-22.92367 -14.4955,-24.12785 -18.262,-39.91562 -3.8837,-16.27887 -3.8837,-16.27887 0.011,-26.477 2.538,-6.64624 6.3639,-13.19213 10.9849,-18.79444 7.0907,-8.59632 7.0907,-8.59632 22.3005,-12.83005 15.2098,-4.23374 15.2098,-4.23374 68.5432,-3.96126 53.3333,0.27249 53.3333,0.27249 64.8725,-4.87695 11.5391,-5.14944 11.5391,-5.14944 15.5429,-15.32869 7.0673,-17.96755 15.7819,-63.98745 18.8444,-99.51257 1.7696,-20.52711 1.7732,-66.0747 0.01,-86.66667 -3.0874,-35.99426 -11.5812,-80.78362 -18.8327,-99.30957 -4.0108,-10.24641 -4.0108,-10.24641 -15.3371,-15.34753 -11.3263,-5.10113 -11.3263,-5.10113 -64.8783,-4.94336 -53.552,0.15776 -53.552,0.15776 -68.7413,-4.07176 -15.1894,-4.22953 -15.1894,-4.22953 -22.4748,-12.94532 -5.1168,-6.12143 -8.4022,-11.78142 -11.0371,-19.01477 -3.7516,-10.29897 -3.7516,-10.29897 0.1177,-26.26989 3.7223,-15.36376 4.4185,-16.87306 18.3136,-39.70103 7.9443,-13.05156 20.1955,-33.9301 27.225,-46.39677 12.7808,-22.66667 12.7808,-22.66667 13.6579,-34.44193 0.8771,-11.77526 0.8771,-11.77526 -4.6322,-18.91633 -18.9691,-24.58746 -70.7962,-65.25754 -116.87999,-91.71871 -42.98238,-24.68037 -103.70228,-48.6027 -133.85321,-52.73529 -8.58089,-1.17612 -8.58089,-1.17612 -18.66992,6.04331 -9.95632,7.12446 -10.27486,7.53874 -24.21596,31.49419 -7.76982,13.35112 -19.31006,33.87476 -25.64499,45.60809 -10.83498,20.06818 -12.26841,22.05156 -24.1709,33.44417 -12.65286,12.11084 -12.65286,12.11084 -23.26599,13.73553 -8.31882,1.27346 -12.89015,1.27611 -21.14626,0.0122 -10.53313,-1.61244 -10.53313,-1.61244 -23.27719,-13.73552 -12.04802,-11.46095 -13.37313,-13.28826 -24.26158,-33.45642 -6.33462,-11.73333 -17.86982,-32.25697 -25.63377,-45.60809 -13.94601,-23.98199 -14.23846,-24.36225 -24.24762,-31.52837 -10.13135,-7.25361 -10.13135,-7.25361 -21.42236,-5.53037 -30.61677,4.67277 -95.51267,30.92276 -136.02284,55.0204 -43.96322,26.15171 -94.02966,65.91036 -111.36103,88.43377 -6.13837,7.97727 -6.13837,7.97727 -5.23823,19.59497 0.90015,11.61769 0.90015,11.61769 13.69519,34.28436 7.03727,12.46667 19.17818,33.16667 26.97981,46 13.60018,22.37171 14.35471,24.01387 18.30835,39.84625 4.12358,16.51291 4.12358,16.51291 0.0761,27.11221 -2.76491,7.24057 -6.27391,13.22367 -11.07353,18.88119 -7.02604,8.28191 -7.02604,8.28191 -22.17377,12.50157 -15.14772,4.21965 -15.14772,4.21965 -68.66578,4.03397 -53.51805,-0.18569 -53.51805,-0.18569 -64.87247,4.87365 -11.35442,5.05934 -11.35442,5.05934 -15.35771,15.23858 -6.01115,15.28468 -12.52675,46.15644 -17.04791,80.77514 -2.87862,22.04176 -3.95805,77.98545 -1.97811,102.52014 3.06078,37.9282 11.47018,83.1882 19.02547,102.39654 4.00384,10.17925 4.00384,10.17925 15.54298,15.33334 11.53914,5.15409 11.53914,5.15409 64.87247,4.87441 53.33334,-0.27968 53.33334,-0.27968 68.45179,3.93103 15.11844,4.2107 15.11844,4.2107 22.32219,12.88948 4.75545,5.72917 8.52174,12.13027 11.08175,18.83423 3.87799,10.15545 3.87799,10.15545 -0.0955,26.51174 -3.90361,16.0685 -4.2727,16.85266 -20.9777,44.56807 -9.35229,15.51649 -21.54988,36.31179 -27.10573,46.21179 -9.88146,17.6078 -10.12142,18.2553 -11.013,29.7164 -0.91143,11.7163 -0.91143,11.7163 4.71591,19.0104 10.75006,13.9341 40.88101,40.6716 68.73217,60.9915 27.21566,19.8562 65.64144,41.8981 96.55481,55.386 29.64677,12.9354 68.03099,25.7306 84,28.001 4.76667,0.6778 8.86162,1.3063 9.0999,1.3968 0.23828,0.091 4.91221,-2.9854 10.38652,-6.8354 z M 295.54176,1014.5801 c 24.30811,-11.8928 28.54271,-44.37757 8.17236,-62.69227 -8.17022,-7.34573 -18.00012,-10.59628 -29.02166,-9.59688 -30.66842,2.78092 -45.483,39.74449 -25.17553,62.81495 12.17533,13.8319 29.73138,17.4458 46.02483,9.4742 z m 884.46194,0.5787 c 14.5588,-6.263 23.8276,-22.31816 22.3421,-38.70036 -2.7733,-30.5843 -39.7769,-45.32388 -62.8338,-25.02844 -11.6235,10.23146 -16.313,24.98447 -12.3141,38.74012 6.792,23.36378 30.5018,34.58368 52.8058,24.98868 z M 290.69694,505.14878 c 9.79756,-2.90956 21.35827,-14.36662 24.09752,-23.88147 2.61878,-9.09637 2.20608,-20.12664 -1.02646,-27.43433 -11.44984,-25.88426 -44.8049,-31.32321 -63.63746,-10.37687 -26.45737,29.42697 2.24273,73.07358 40.5664,61.69267 z m 890.17206,-1.60696 c 8.212,-4.20983 12.9004,-8.65142 16.9117,-16.02147 14.0344,-25.78593 -4.3377,-56.61411 -33.8257,-56.75902 -34.836,-0.17119 -51.0988,43.00463 -25.0274,66.44503 3.5851,3.22332 9.0536,6.79458 12.1523,7.93614 7.8179,2.88018 22.5976,2.08601 29.7891,-1.60068 z M 738.20237,247.55193 c 8.7161,-4.48432 13.43318,-9.17769 17.42571,-17.33814 3.08713,-6.30986 3.70835,-9.29418 3.66476,-17.60546 -0.0573,-10.93467 -2.51769,-17.38184 -9.79704,-25.67256 -8.42891,-9.6 -25.90105,-14.12824 -39.65502,-10.27737 -18.99898,5.31939 -30.93425,27.4968 -25.27489,46.96431 3.10948,10.69624 9.28159,18.09838 19.54177,23.43621 8.0157,4.17014 9.29209,4.43749 18.60608,3.89707 6.63033,-0.38471 11.8495,-1.53177 15.48863,-3.40406 z"
     id="path1"
     sodipodi:nodetypes="sssssssssssssssssssssssssssssssssssssssssssssssssssssssssssssssssssssssssssssssssssssscsssssssssssssssssssssssssssssssssssssssssssssssssssssssssssssssssssssssssssssssssssssssssscsssssssssssssssssssssssscsssssssssssssssssssssssssssssssssssssssssssssssssssscccssssssssssssssssssssssssssssss" /></svg>
